<svg xmlns="http://www.w3.org/2000/svg" viewBox="0 0 512 512">
  <defs>
    <linearGradient id="ak-grad" x1="0" y1="0" x2="1" y2="1">
      <stop offset="0" stop-color="#ffb3b3"/>
      <stop offset="0.5" stop-color="#ff5a5a"/>
      <stop offset="1" stop-color="#ef4444"/>
    </linearGradient>
  </defs>
  <rect x="10" y="10" width="492" height="492" rx="100" fill="#070707" stroke="#dc2626" stroke-width="10"/>
  <path d="M142.45 314.40L142.45 142.20Q142.45 140.10 176.65 127.35Q210.85 114.60 215.95 114.60Q221.05 114.60 231.40 126.90Q241.75 139.20 241.75 149.10L241.75 227.70L256.45 227.70L256.45 234.90L241.75 242.40L241.75 300.60Q241.75 317.10 256.15 320.10L256.15 326.70L223.45 345Q216.85 342.30 211.15 336.15Q205.45 330 205.45 324.60L205.45 242.40L178.45 242.40L178.45 298.80Q178.45 309.90 180.85 314.70Q183.25 319.50 190.75 319.50L190.75 328.80L129.25 354.60L124.45 345Q131.05 345 137.05 337.20Q142.45 329.70 142.45 314.40M190.15 142.50Q184.15 142.50 178.45 147L178.45 235.50L196.15 227.70L205.45 227.70L205.45 164.70Q205.45 142.50 190.15 142.50M370.75 153.90L370.75 211.80Q371.35 213.90 338.35 227.10Q338.35 233.40 342.55 247.95Q346.75 262.50 353.50 278.40Q360.25 294.30 370.45 306.30Q380.65 318.30 390.85 318.30L390.85 327.30Q362.95 345 355.45 345Q344.95 345 327.10 299.10Q309.25 253.20 309.25 237.30L307.75 237.90L307.75 298.80Q307.75 309.90 310.15 314.70Q312.55 319.50 320.05 319.50L320.05 328.80L258.55 354.60L253.75 345Q260.35 345 266.35 337.20Q271.75 329.70 271.75 314.40L271.75 159Q271.75 140.70 259.45 138.30L259.45 131.70L289.75 114.60Q296.35 117.30 302.05 123.45Q307.75 129.60 307.75 134.70L307.75 223.80Q315.55 223.80 325.15 218.85Q334.75 213.90 334.75 208.50L334.75 169.50Q334.75 158.40 332.35 153.60Q329.95 148.80 322.45 148.80L322.45 139.50L383.95 113.70L388.75 123.30Q382.15 123.30 376.15 131.10Q370.75 138.60 370.75 153.90" fill="url(#ak-grad)"/>
  <path d="M 133 408 Q 195 392 256 401 T 379 396" fill="none" stroke="#dc2626" stroke-width="14" stroke-linecap="round"/>
</svg>
